# xmcd
#
# Track frame offsets:
# 150
# 18816
# 36426
# 49406
# 67963
# 83861
# 98637
# 120307
# 138250
# 150499
# 168674
# 183963
# 202852
# 217403
# 233493
# 251503
# 265966
# 280953
# 298727
# 313197
#
# Disc length: 4382 seconds
#
# Revision: 1
# Processed by: cddbd v1.5.2PL0 Copyright (c) Steve Scherf et al.
# Submitted via: CedeCatalogueitor 2.6.0.6 http://personales.ya.com/cdcatalogueitor
#
DISCID=1e111c14
DTITLE=The Marshall Tucker Band - Dedicated - Tuckerized
DYEAR=1981
DGENRE=
TTITLE0=Rumors Are Raging
TTITLE1=Tonight's The Night (For Making Love)
TTITLE2=Love Some
TTITLE3=Silverado
TTITLE4=Soething's Missing In My Life
TTITLE5=This Time I Believe
TTITLE6=Tell The Blues To Take Off The Night
TTITLE7=Special Someone
TTITLE8=The Time Has Come
TTITLE9=Ride In Peace
TTITLE10=Reachin' For A Little Bit Ore
TTITLE11=If You Think You're Hurtin' Me (Girl You're Crazy)
TTITLE12=Even A Fool Would Let Go
TTITLE13=Sea, Dreams and Fairy Tales
TTITLE14=Anyway The Wind Blows Rider
TTITLE15=Mr. President
TTITLE16=Heartbroke
TTITLE17=Unforgive
TTITLE18=Sweet Elaine
TTITLE19=Ace High Love
EXTD=
EXTT0=
EXTT1=
EXTT2=
EXTT3=
EXTT4=
EXTT5=
EXTT6=
EXTT7=
EXTT8=
EXTT9=
EXTT10=
EXTT11=
EXTT12=
EXTT13=
EXTT14=
EXTT15=
EXTT16=
EXTT17=
EXTT18=
EXTT19=
PLAYORDER=
